<svg version="1" xmlns="http://www.w3.org/2000/svg" width="682.667" height="682.667" viewBox="0 0 512.000000 512.000000"><path d="M77.4 69.3c-2.2 1.9-2.8 3.4-3.1 7.8-.6 9-11.3 342.7-11.3 353.6 0 10.1 0 10.1 3.1 12.7l3.1 2.6H96c18 0 27.7-.4 29.4-1.1 5.3-2.4 5 1.4 9.3-134.2 3.7-117.3 4.1-126.9 5.8-128.7 1-1.1 3.1-2 4.6-2 2.5 0 6.8 4.8 36.4 39.9 18.4 22 34.7 40.9 36.1 42 2.6 2 3.7 2.1 38.4 2.1 35.4 0 35.7 0 38.8-2.3 1.8-1.2 18-20.1 36.2-41.9 24.1-29.1 33.7-39.9 35.7-40.4 3.6-1 7.3 3.2 7.3 8.4 0 21.1 8.2 251.8 9 253.3 2.4 4.5 5.3 4.9 33 4.9 28.4 0 30.5-.3 32.8-5.5 1-2.2.2-36.4-4.3-175.4-3-94.9-5.8-177.3-6.1-183-.5-9.1-.9-10.7-3-12.8l-2.3-2.3h-30.6c-18.6 0-31.4.4-32.5 1-1 .6-26.7 30.8-57.1 67.3-30.4 36.4-55.5 66.6-55.9 67-.4.4-25.5-29.1-55.9-65.5-30.4-36.5-56.4-67.1-57.9-68-2.4-1.6-5.9-1.8-32.9-1.8-30.2 0-30.2 0-32.9 2.3z"/><path d="M225.2 364.2c-.7.7-1.2 2.1-1.2 3.1 0 1.1 6.5 9.8 14.5 19.3 12.3 14.8 15 17.4 17.3 17.4 1.5 0 3.2-.4 3.8-.8.7-.4 7.3-8.1 14.8-17 13.4-16.1 15.1-19.3 12.4-22-1.7-1.7-59.9-1.7-61.6 0z"/></svg>